<svg xmlns="http://www.w3.org/2000/svg" viewBox="0 0 300 350" fill="none">
  <!-- Main arch - outermost -->
  <path d="M150 20 C70 20, 20 80, 20 150 C20 220, 70 280, 150 280 C230 280, 280 220, 280 150 C280 80, 230 20, 150 20Z" stroke="#5b9a8b" stroke-width="6" fill="none"/>
  <!-- Arch line 2 -->
  <path d="M150 45 C85 45, 42 95, 42 150 C42 205, 85 255, 150 255 C215 255, 258 205, 258 150 C258 95, 215 45, 150 45Z" stroke="#5b9a8b" stroke-width="4" fill="none"/>
  <!-- Arch line 3 -->
  <path d="M150 70 C100 70, 62 110, 62 150 C62 190, 100 230, 150 230 C200 230, 238 190, 238 150 C238 110, 200 70, 150 70Z" stroke="#5b9a8b" stroke-width="3.5" fill="none"/>
  <!-- Arch line 4 -->
  <path d="M150 95 C115 95, 82 125, 82 150 C82 175, 115 205, 150 205 C185 205, 218 175, 218 150 C218 125, 185 95, 150 95Z" stroke="#5b9a8b" stroke-width="3" fill="none"/>
  <!-- سطام text - large calligraphic -->
  <text x="150" y="310" text-anchor="middle" font-family="'Arial Black', 'Segoe UI', sans-serif" font-weight="900" font-size="52" fill="#5b9a8b" letter-spacing="4">سطام</text>
  <!-- Lines under text -->
  <line x1="50" y1="325" x2="250" y2="325" stroke="#5b9a8b" stroke-width="5"/>
  <line x1="70" y1="338" x2="230" y2="338" stroke="#5b9a8b" stroke-width="3"/>
</svg>
